<svg width="796" height="506" viewBox="0 0 796 506" fill="none" xmlns="http://www.w3.org/2000/svg">
<path d="M45.5188 503.871C33.2679 502.863 22.4518 494 16.3008 483.357C14.238 479.788 12.8247 475.107 15.1606 471.71C15.8292 470.738 16.7533 469.969 17.8309 469.488C18.9085 469.008 20.0979 468.834 21.2679 468.986C22.438 469.138 23.5434 469.61 24.4623 470.351C25.3811 471.091 26.0778 472.07 26.4756 473.181C25.7232 469.012 25.3999 464.776 25.5108 460.54C25.6049 456.954 26.2825 452.9 29.2643 450.906C32.7236 448.592 37.7098 450.429 40.226 453.744C42.7422 457.059 43.425 461.37 44.0289 465.488C43.5358 463.745 43.4877 461.907 43.889 460.14C44.2903 458.374 45.1281 456.737 46.3258 455.378C47.5234 454.02 49.0427 452.983 50.7446 452.363C52.4465 451.743 54.2766 451.56 56.0675 451.831C61.1342 452.596 65.1033 456.983 66.6521 461.867C68.2008 466.752 67.7173 472.048 66.7205 477.074C65.5516 482.968 63.6547 488.815 60.2395 493.758C56.8243 498.702 51.7515 502.687 45.866 503.897L45.5188 503.871Z" fill="#F2F2F2"/>
<path d="M795.122 106C795.122 127.984 788.289 149.424 775.569 167.354C762.849 185.284 744.871 198.817 724.122 206.08C723.462 206.31 722.792 206.54 722.122 206.75V99.04H583.352C583.392 98.37 583.442 97.7 583.502 97.04H722.122V76C722.121 74.6741 721.594 73.4026 720.657 72.4651C719.719 71.5275 718.448 71.0005 717.122 71H589.042C589.272 70.33 589.512 69.66 589.772 69C598.449 45.7103 615.032 26.2096 636.626 13.9047C658.22 1.59972 683.45 -2.72714 707.91 1.68C732.369 6.08714 754.503 18.9481 770.444 38.016C786.385 57.0839 795.119 81.1465 795.122 106Z" fill="#F2F2F2"/>
<path d="M717.122 69H230.122C228.266 69.0021 226.487 69.7402 225.174 71.0525C223.862 72.3648 223.124 74.1441 223.122 76V406C223.124 407.856 223.862 409.635 225.174 410.947C226.487 412.26 228.266 412.998 230.122 413H717.122C718.978 412.998 720.757 412.26 722.069 410.947C723.382 409.635 724.12 407.856 724.122 406V76C724.12 74.1441 723.382 72.3648 722.069 71.0525C720.757 69.7402 718.978 69.0021 717.122 69ZM722.122 406C722.121 407.326 721.594 408.597 720.657 409.535C719.719 410.473 718.448 411 717.122 411H230.122C228.796 411 227.524 410.473 226.587 409.535C225.649 408.597 225.122 407.326 225.122 406V76C225.122 74.6741 225.649 73.4026 226.587 72.4651C227.524 71.5275 228.796 71.0005 230.122 71H717.122C718.448 71.0005 719.719 71.5275 720.657 72.4651C721.594 73.4026 722.121 74.6741 722.122 76V406Z" fill="white"/>
<path d="M723.122 97.04H224.122V99.04H723.122V97.04Z" fill="white"/>
<path d="M241.122 90C244.436 90 247.122 87.3137 247.122 84C247.122 80.6863 244.436 78 241.122 78C237.808 78 235.122 80.6863 235.122 84C235.122 87.3137 237.808 90 241.122 90Z" fill="white"/>
<path d="M258.372 90C261.686 90 264.372 87.3137 264.372 84C264.372 80.6863 261.686 78 258.372 78C255.058 78 252.372 80.6863 252.372 84C252.372 87.3137 255.058 90 258.372 90Z" fill="white"/>
<path d="M275.622 90C278.936 90 281.622 87.3137 281.622 84C281.622 80.6863 278.936 78 275.622 78C272.308 78 269.622 80.6863 269.622 84C269.622 87.3137 272.308 90 275.622 90Z" fill="white"/>
<path d="M360.122 138H272.122C270.266 138.002 268.487 138.74 267.174 140.053C265.862 141.365 265.124 143.144 265.122 145V233C265.124 234.856 265.862 236.635 267.174 237.947C268.487 239.26 270.266 239.998 272.122 240H360.122C361.978 239.998 363.757 239.26 365.069 237.947C366.382 236.635 367.12 234.856 367.122 233V145C367.12 143.144 366.382 141.365 365.069 140.053C363.757 138.74 361.978 138.002 360.122 138ZM365.122 233C365.121 234.326 364.594 235.597 363.657 236.535C362.719 237.473 361.448 237.999 360.122 238H272.122C270.796 237.999 269.524 237.473 268.587 236.535C267.649 235.597 267.122 234.326 267.122 233V145C267.122 143.674 267.649 142.403 268.587 141.465C269.524 140.527 270.796 140.001 272.122 140H360.122C361.448 140.001 362.719 140.527 363.657 141.465C364.594 142.403 365.121 143.674 365.122 145V233Z" fill="white"/>
<path d="M518.122 138.5H430.122C428.399 138.503 426.748 139.189 425.529 140.408C424.311 141.626 423.625 143.277 423.622 145V233C423.625 234.723 424.311 236.374 425.529 237.593C426.748 238.811 428.399 239.497 430.122 239.5H518.122C519.845 239.497 521.496 238.811 522.714 237.593C523.933 236.374 524.618 234.723 524.622 233V145C524.618 143.277 523.933 141.626 522.714 140.408C521.496 139.189 519.845 138.503 518.122 138.5Z" fill="#F2075D"/>
<path d="M676.122 138.5H588.122C586.399 138.503 584.748 139.189 583.529 140.408C582.311 141.626 581.625 143.277 581.622 145V233C581.625 234.723 582.311 236.374 583.529 237.593C584.748 238.811 586.399 239.497 588.122 239.5H676.122C677.845 239.497 679.496 238.811 680.714 237.593C681.933 236.374 682.618 234.723 682.622 233V145C682.618 143.277 681.933 141.626 680.714 140.408C679.496 139.189 677.845 138.503 676.122 138.5Z" fill="#E6E6E6"/>
<path d="M360.122 270.5H272.122C270.399 270.503 268.748 271.189 267.529 272.408C266.311 273.626 265.625 275.277 265.622 277V365C265.625 366.723 266.311 368.374 267.529 369.592C268.748 370.811 270.399 371.497 272.122 371.5H360.122C361.845 371.497 363.496 370.811 364.714 369.592C365.933 368.374 366.618 366.723 366.622 365V277C366.618 275.277 365.933 273.626 364.714 272.408C363.496 271.189 361.845 270.503 360.122 270.5Z" fill="#E6E6E6"/>
<path d="M518.122 270.5H430.122C428.399 270.503 426.748 271.189 425.529 272.408C424.311 273.626 423.625 275.277 423.622 277V365C423.625 366.723 424.311 368.374 425.529 369.592C426.748 370.811 428.399 371.497 430.122 371.5H518.122C519.845 371.497 521.496 370.811 522.714 369.592C523.933 368.374 524.618 366.723 524.622 365V277C524.618 275.277 523.933 273.626 522.714 272.408C521.496 271.189 519.845 270.503 518.122 270.5Z" fill="#F2075D"/>
<path d="M676.122 270.5H588.122C586.399 270.503 584.748 271.189 583.529 272.408C582.311 273.626 581.625 275.277 581.622 277V365C581.625 366.723 582.311 368.374 583.529 369.592C584.748 370.811 586.399 371.497 588.122 371.5H676.122C677.845 371.497 679.496 370.811 680.714 369.592C681.933 368.374 682.618 366.723 682.622 365V277C682.618 275.277 681.933 273.626 680.714 272.408C679.496 271.189 677.845 270.503 676.122 270.5Z" fill="#E6E6E6"/>
<path d="M338.622 285H250.622C248.899 284.998 247.246 284.313 246.028 283.094C244.809 281.875 244.124 280.223 244.122 278.5V190.5C244.124 188.777 244.809 187.125 246.028 185.906C247.246 184.687 248.899 184.002 250.622 184H338.622C340.345 184.002 341.997 184.687 343.216 185.906C344.434 187.125 345.12 188.777 345.122 190.5V278.5C345.12 280.223 344.434 281.875 343.216 283.094C341.997 284.313 340.345 284.998 338.622 285Z" fill="#F2075D"/>
<path d="M203.746 492.088L215.466 488.491L207.17 441.573L189.872 446.881L203.746 492.088Z" fill="#EBCCAB"/>
<path d="M241.41 492.438L204.574 503.742L200.207 489.51L222.81 482.573C224.679 482 226.643 481.8 228.589 481.985C230.535 482.171 232.426 482.737 234.153 483.653C235.88 484.569 237.41 485.817 238.655 487.324C239.9 488.831 240.836 490.569 241.41 492.438Z" fill="#2F2E41"/>
<path d="M103.748 492.358L116.008 492.357L121.84 445.069L103.746 445.07L103.748 492.358Z" fill="#EBCCAB"/>
<path d="M139.652 503.74L101.121 503.742L101.121 488.855L124.764 488.854C126.719 488.854 128.655 489.239 130.461 489.987C132.268 490.735 133.909 491.832 135.291 493.214C136.674 494.596 137.77 496.237 138.519 498.043C139.267 499.849 139.652 501.785 139.652 503.74L139.652 503.74Z" fill="#2F2E41"/>
<path d="M102.868 355.28C101.861 354.398 101.06 353.304 100.521 352.078C99.9816 350.852 99.7179 349.523 99.7483 348.183C99.7786 346.844 100.102 345.528 100.696 344.328C101.29 343.127 102.14 342.071 103.186 341.235L112.692 221.54L132.023 226.37L116.545 343.129C117.834 344.979 118.399 347.238 118.133 349.478C117.868 351.717 116.79 353.781 115.104 355.279C113.418 356.777 111.242 357.605 108.986 357.605C106.731 357.605 104.554 356.778 102.868 355.28Z" fill="#EBCCAB"/>
<path d="M141.579 175.116C155.144 175.116 166.14 164.12 166.14 150.555C166.14 136.991 155.144 125.994 141.579 125.994C128.015 125.994 117.018 136.991 117.018 150.555C117.018 164.12 128.015 175.116 141.579 175.116Z" fill="#EBCCAB"/>
<path d="M120.223 217.859C114.681 210.25 114.51 199.772 120.48 192.495C124.375 187.745 130.892 183.945 141.772 183.945C170.772 183.945 181.772 206.945 181.772 206.945C181.772 206.945 193.772 228.945 186.772 248.945C179.772 268.945 179.772 270.945 179.772 270.945L133.772 266.945C133.772 266.945 141.532 247.113 120.223 217.859Z" fill="#CCCCCC"/>
<path d="M106.037 237.767L115.947 205.346C116.611 203.175 117.743 201.177 119.264 199.492C120.785 197.807 122.658 196.476 124.75 195.594C126.842 194.712 129.102 194.301 131.37 194.388C133.638 194.476 135.86 195.061 137.877 196.101C141.378 197.914 144.058 200.99 145.374 204.706C146.69 208.422 146.544 212.499 144.965 216.111L132.367 244.802L106.037 237.767Z" fill="#CCCCCC"/>
<path d="M178.772 265.945L217.772 467.945L196.772 473.945L145.772 340.945L122.772 476.945L100.772 479.945C100.772 479.945 91.1218 300 133.772 266.945L178.772 265.945Z" fill="#2F2E41"/>
<path d="M234.903 256.477C234.548 256.901 234.226 257.352 233.941 257.827L184.406 260.228L174.867 231.109L158.305 238.98L173.893 282.352L235.155 270.371C236.595 271.942 238.479 273.039 240.557 273.513C242.634 273.988 244.807 273.819 246.787 273.029C248.766 272.239 250.458 270.865 251.637 269.09C252.817 267.314 253.428 265.222 253.389 263.091C253.35 260.96 252.664 258.892 251.421 257.16C250.178 255.429 248.437 254.117 246.431 253.399C244.424 252.681 242.246 252.591 240.187 253.141C238.128 253.691 236.285 254.855 234.903 256.477Z" fill="#EBCCAB"/>
<path d="M151.375 209.849C151.11 207.595 151.343 205.309 152.058 203.155C152.773 201 153.953 199.029 155.514 197.381C157.074 195.732 158.978 194.447 161.09 193.615C163.203 192.783 165.472 192.425 167.737 192.567C171.671 192.82 175.362 194.559 178.061 197.432C180.76 200.305 182.266 204.097 182.272 208.039V239.374L155.336 243.518L151.375 209.849Z" fill="#CCCCCC"/>
<path d="M146.981 175.339C143.294 175.323 140.45 171.442 140.616 167.759C140.781 164.076 143.254 160.836 146.234 158.666C149.214 156.496 152.709 155.174 156.032 153.579C159.356 151.983 162.65 149.993 164.702 146.931C165.941 144.926 166.681 142.653 166.859 140.303C167.037 137.953 166.648 135.595 165.725 133.426C163.815 129.089 160.537 125.498 156.392 123.202C150.234 119.598 142.944 118.445 135.975 119.974C129.006 121.503 122.868 125.601 118.785 131.452L114.577 142.91C110.289 148.066 109.609 155.724 112.244 161.89C114.88 168.056 120.493 172.696 126.826 174.901C133.251 176.966 140.129 177.172 146.667 175.496" fill="#573C33"/>
<path d="M124.534 137.179C122.725 134.279 119.59 132.435 116.348 131.353C112.593 130.1 108.599 129.73 104.677 130.272C100.756 130.814 97.0123 132.255 93.7384 134.481C90.4645 136.707 87.7485 139.658 85.802 143.105C83.8554 146.553 82.7309 150.403 82.5158 154.356C82.1722 160.67 84.1494 166.845 85.3112 173.061C86.473 179.277 86.7041 186.143 83.2768 191.457C80.6662 195.505 76.3129 198.054 72.0159 200.23C68.4346 202.044 64.5609 203.746 60.5628 203.384C56.5647 203.023 52.5464 199.856 52.6525 195.843C51.314 198.72 50.4103 201.781 49.9708 204.923C49.6896 208.079 50.4674 211.485 52.7469 213.685C56.06 216.884 61.3094 216.65 65.8626 215.96C75.7195 214.466 85.7007 211.664 93.4881 205.439C101.275 199.215 106.443 188.965 104.392 179.208C103.535 175.133 101.522 171.412 99.8952 167.579C98.2684 163.745 96.9983 159.552 97.7456 155.455C98.188 153.344 99.0882 151.356 100.383 149.631C101.677 147.906 103.335 146.487 105.238 145.473C109.087 143.471 113.491 142.804 117.761 143.574C120.56 144.033 124.055 144.746 125.715 142.446C126.155 141.718 126.38 140.879 126.363 140.029C126.347 139.178 126.089 138.349 125.621 137.638C124.664 136.232 123.444 135.023 122.029 134.078" fill="#573C33"/>
<path d="M309.485 505.345H2.1907C2.03405 505.346 1.87884 505.315 1.73398 505.256C1.58912 505.196 1.45746 505.108 1.34653 504.998C1.2356 504.887 1.14758 504.756 1.08752 504.611C1.02747 504.466 0.996552 504.311 0.996552 504.154C0.996552 503.998 1.02747 503.843 1.08752 503.698C1.14758 503.553 1.2356 503.422 1.34653 503.311C1.45746 503.201 1.58912 503.113 1.73398 503.053C1.87884 502.994 2.03405 502.963 2.1907 502.964H309.485C309.641 502.963 309.797 502.994 309.941 503.053C310.086 503.113 310.218 503.201 310.329 503.311C310.44 503.422 310.528 503.553 310.588 503.698C310.648 503.843 310.679 503.998 310.679 504.154C310.679 504.311 310.648 504.466 310.588 504.611C310.528 504.756 310.44 504.887 310.329 504.998C310.218 505.108 310.086 505.196 309.941 505.256C309.797 505.315 309.641 505.346 309.485 505.345Z" fill="white"/>
</svg>
