<svg width="448" height="448" viewBox="0 0 448 448" fill="none" xmlns="http://www.w3.org/2000/svg">
<g clip-path="url(#clip0)">
<path d="M0 224V448H448.014V-0.0135498H0V224ZM361.039 206.15C372.414 208.992 381.094 214.046 389.06 222.292C393.19 226.702 399.301 234.738 399.798 236.656C399.938 237.216 380.457 250.306 368.648 257.635C368.228 257.915 366.513 256.074 364.588 253.225C358.827 244.825 352.786 241.206 343.539 240.569C329.959 239.645 321.139 246.757 321.279 258.629C321.279 262.115 321.769 264.173 323.197 267.029C326.186 273.217 331.737 276.913 349.153 284.459C381.227 298.249 394.947 307.349 403.473 320.299C412.993 334.733 415.135 357.777 408.667 374.913C401.555 393.547 383.922 406.203 359.107 410.403C351.428 411.754 333.221 411.544 324.975 410.053C306.985 406.854 289.919 397.964 279.391 386.302C275.261 381.752 267.232 369.873 267.729 369.012C267.939 368.732 269.794 367.591 271.859 366.38L288.498 356.79L301.378 349.321L304.08 353.311C307.846 359.072 316.099 366.961 321.076 369.593C335.37 377.132 354.998 376.061 364.665 367.388C368.795 363.622 370.496 359.709 370.496 353.948C370.496 348.754 369.866 346.479 367.157 342.573C363.671 337.603 356.559 333.403 336.357 324.653C313.243 314.699 303.289 308.511 294.189 298.697C288.925 293.006 283.948 283.906 281.883 276.297C280.175 269.969 279.748 254.107 281.099 247.709C285.859 225.309 302.715 209.804 327.04 205.184C334.936 203.693 353.29 204.26 361.032 206.178L361.039 206.15ZM255.864 224.84L256.004 243.18H197.694V408.87H156.45V243.18H98.14V225.19L98.63 206.71C98.84 206.43 134.33 206.29 177.352 206.36L255.647 206.57L255.864 224.84Z" fill="#ffffff"/>
</g>
<defs>
<clipPath id="clip0">
<rect width="448" height="448" rx="45" fill="white"/>
</clipPath>
</defs>
</svg>
