<svg width="1922" height="1003" viewBox="0 0 1922 1003" fill="none" xmlns="http://www.w3.org/2000/svg">
<mask id="mask0" mask-type="alpha" maskUnits="userSpaceOnUse" x="0" y="0" width="1922" height="1003">
<path d="M977.666 1002.03C1207.82 1002.03 1522.51 968.879 1921.74 902.57L1921.34 458.005V0.0339966H0.737976L0.999976 400.476L0.737976 894.868L30.9 901.951C307.363 965.483 631.317 1002.03 977.666 1002.03V1002.03Z" fill="white"/>
</mask>
<g mask="url(#mask0)">
<path d="M977.666 1002.03C1207.82 1002.03 1522.51 968.879 1921.74 902.57L1921.34 458.005V0.0339966H0.737915L0.999915 400.476L0.737915 894.868L30.8999 901.951C307.363 965.483 631.317 1002.03 977.666 1002.03V1002.03Z" fill="url(#paint0_linear)"/>
<path d="M2221.45 -773.24C2458.74 -748.523 2748.62 -677.437 3042.64 -574.366C3327.41 -474.536 3598.11 -350.81 3799.67 -227.81C4014.1 -96.95 4138.95 25.64 4148.11 122.713C4174.81 405.713 3600.94 661.693 2981.04 728.257L2981.04 728.232L3082.64 762.632C3367.41 862.462 3638.11 986.188 3839.67 1109.19C4054.1 1240.05 4178.95 1362.64 4188.11 1459.71C4226.41 1865.5 3029.96 2215.7 2233.52 2031.68C2042.11 1987.45 1884.08 1905.75 1763.39 1793.15C1651.93 1689.16 1574.65 1560.69 1535.09 1419.19C1525.52 1384.94 1518.21 1350.1 1513.19 1314.89L1513.2 1314.92C1479.41 1316.74 1445.6 1317.97 1411.91 1318.57L1411.98 1318.54C1419.22 1692.6 317.103 2010.4 -419.604 1840.17C-598.896 1798.74 -746.918 1722.21 -859.969 1616.73C-964.369 1519.33 -1036.76 1398.99 -1073.81 1266.45C-1139.99 1029.71 -1087.5 773.944 -938.899 595.158C-963.717 457.586 -922.686 314.558 -828.345 219.492C-778.845 169.616 -675.797 153.426 -532.578 168.345C-403.013 181.842 -244.742 220.653 -84.2181 276.928C-0.214142 306.378 81.5499 339.636 156.329 374.584C170.022 193.121 243.943 20.516 369.296 -105.784C459.747 -196.92 648.3 -226.546 910.45 -199.24C1075.8 -182.017 1266.68 -142.28 1466.71 -84.893C1452.38 -306.753 1528.76 -527.103 1680.29 -679.793C1770.75 -770.93 1959.31 -800.556 2221.45 -773.25L2221.45 -773.24ZM2976.21 728.763L2974.18 728.986C2928.43 733.792 2882.45 737.566 2836.45 740.239L2836.53 740.229C2801.76 1028.8 2158.5 1279.71 1515.21 1314.81L1515.2 1314.78C1520.17 1349.61 1527.42 1384.32 1537.02 1418.65C1576.47 1559.8 1653.56 1687.95 1764.75 1791.68C1885.18 1904.04 2042.89 1985.58 2233.97 2029.73C3029.27 2213.49 4224.23 1863.73 4186.12 1459.9C4177.04 1363.7 4052.53 1241.44 3838.62 1110.9C3637.2 987.976 3366.62 864.306 3081.98 764.52L2976.21 728.762L2976.21 728.763ZM-938.425 597.72L-939.321 598.803C-1086 776.966 -1137.6 1030.84 -1071.88 1265.91C-1034.93 1398.1 -962.734 1518.12 -858.604 1615.27C-745.816 1720.51 -598.111 1796.87 -419.154 1838.22C316.489 2008.2 1417.24 1690.77 1409.98 1318.58L1409.91 1318.61C1226.68 1321.75 1046.16 1306.49 882.523 1268.68C691.109 1224.45 533.08 1142.75 412.388 1030.15C365.708 986.594 325.022 938.747 290.591 887.447L290.601 887.45C65.3808 984.404 -282.099 1031.97 -547.977 970.537C-652.539 946.377 -738.872 901.741 -804.813 840.217C-865.713 783.395 -907.943 713.195 -929.557 635.877C-933.09 623.237 -936.044 610.505 -938.427 597.723L-938.425 597.72ZM514.092 704.518L512.052 710.376C487.104 776.516 405.292 837.791 292.477 886.641L292.455 886.634C326.758 937.694 367.277 985.321 413.753 1028.68C534.183 1141.05 691.893 1222.58 882.973 1266.73C1046.46 1304.51 1226.83 1319.74 1409.9 1316.59L1409.92 1316.56C1409.8 1312.57 1409.55 1308.57 1409.18 1304.56C1400.68 1214.47 1284.07 1099.98 1083.74 977.719C928.232 882.819 728.718 787.441 514.092 704.509V704.518ZM373.44 -107.073L370.714 -104.373C245.53 21.754 171.77 194.216 158.26 375.493C221.136 404.948 279.023 435.587 329.096 466.143C446.266 537.648 514.496 604.643 519.516 657.829C520.941 672.924 519.246 687.876 514.713 702.605L514.683 702.602C729.463 785.587 929.135 881.035 1084.78 976.02C1285.64 1098.6 1402.59 1213.43 1411.18 1304.38C1411.56 1308.42 1411.81 1312.47 1411.93 1316.52L1411.91 1316.55C1445.52 1315.95 1479.22 1314.73 1512.92 1312.92L1512.92 1312.89C1479.07 1071.06 1554.92 823.842 1720.3 657.217C1758.17 619.057 1813.25 591.681 1883.72 574.753C1824.61 540.316 1771.09 500.643 1723.4 456.147C1611.94 352.157 1534.66 223.69 1495.1 82.192C1479.9 27.805 1470.56 -27.523 1466.85 -82.77C1266.69 -140.234 1075.67 -180.02 910.252 -197.25C651.279 -224.226 464.39 -195.55 373.446 -107.073H373.44ZM1886.24 576.227L1885.11 576.49C1814.55 593.315 1759.48 620.592 1721.71 658.636C1556.75 824.846 1481.09 1071.51 1514.92 1312.79L1514.92 1312.82C2157.23 1277.78 2799.52 1027.52 2834.52 740.35L2834.43 740.366C2612.82 753.092 2390.89 740.296 2193.53 694.693C2078.82 668.19 1976.11 628.23 1886.23 576.227H1886.24ZM-898.904 554.117C-912.138 567.451 -924.759 581.339 -936.754 595.729C-934.324 609.009 -931.284 622.229 -927.618 635.349C-906.102 712.319 -864.066 782.197 -803.435 838.766C-737.757 900.046 -651.74 944.516 -547.513 968.6C-282.147 1029.92 64.7989 982.343 289.51 885.807L289.495 885.803C242.273 815.067 206.915 737.803 184.105 656.203C177.615 632.983 172.192 609.591 167.821 586.107L167.831 586.104C-34.2092 525.957 -227.676 484.431 -393.624 467.144C-638.624 441.624 -814.72 469.294 -898.906 554.117H-898.904ZM169.986 586.747L170.553 589.799C174.793 611.96 179.957 633.935 186.031 655.665C208.817 737.175 244.153 814.351 291.358 884.993L291.381 885C407.306 834.906 490.351 771.747 512.274 703.824C467.114 686.394 421.292 669.52 375.074 653.317C306.232 629.183 237.632 606.922 169.986 586.747V586.747ZM1890.18 575.307L1889.08 575.564C1978.34 626.946 2080.25 666.467 2193.97 692.744C2391.25 738.327 2613.12 751.082 2834.66 738.326L2834.75 738.312C2836.3 724.561 2836.42 710.688 2835.12 696.912C2834.74 692.896 2834.16 688.835 2833.38 684.73C2627.56 624.847 2430.93 583.436 2261.24 565.76C2112.14 550.228 1986.93 553.148 1890.17 575.307H1890.18ZM2835.54 685.354L2835.99 687.92C2836.47 690.878 2836.85 693.813 2837.12 696.725C2838.44 710.623 2838.3 724.455 2836.78 738.205L2836.69 738.212C2881.71 735.589 2926.71 731.912 2971.48 727.246V727.236C2926.38 712.595 2881.06 698.634 2835.54 685.357L2835.54 685.354ZM1681.71 -678.374C1530.43 -525.947 1454.25 -305.852 1468.75 -84.306C1555.13 -59.482 1643.2 -31.371 1731.64 -0.366028C2016.41 99.464 2287.11 223.19 2488.67 346.19C2693.23 471.022 2816.26 588.33 2835.12 683.14L2835.11 683.135C2881.79 696.731 2928.94 711.275 2976.36 726.707L2976.36 726.719C3597 661.005 4172.76 405.159 4146.12 122.901C4137.04 26.701 4012.54 -95.563 3798.63 -226.103C3597.2 -349.023 3326.62 -472.693 3041.98 -572.479C2748.1 -675.502 2458.36 -746.55 2221.24 -771.25C1959.65 -798.5 1771.61 -768.955 1681.71 -678.374ZM158.115 377.63L157.77 382.468C153.363 449.315 157.144 517.293 169.554 584.526L169.564 584.524C237.56 604.787 306.521 627.156 375.726 651.418C421.912 667.608 467.703 684.472 512.831 701.886L512.868 701.89C517.268 687.45 518.92 672.8 517.525 658.016C512.587 605.693 444.701 539.036 328.055 467.85C278.231 437.444 220.651 406.953 158.115 377.63V377.63ZM1468.89 -82.185L1469.37 -75.535C1473.38 -22.875 1482.53 29.817 1497.02 81.653C1536.48 222.8 1613.57 350.947 1724.75 454.683C1772.82 499.535 1826.84 539.475 1886.55 574.087C1984.01 551.187 2110.54 548.039 2261.46 563.759C2431 581.419 2627.39 622.749 2832.95 682.505C2813.58 588.637 2691.02 472.011 2487.64 347.895C2286.2 224.977 2015.62 101.307 1730.98 1.52197C1642.81 -29.388 1555.01 -57.418 1468.89 -82.184V-82.185ZM-826.928 220.902C-920.42 315.102 -961.308 456.702 -937.222 593.152C-925.512 579.172 -913.214 565.675 -900.335 552.699C-815.597 467.319 -638.97 439.569 -393.425 465.146C-227.625 482.418 -34.3871 523.862 167.411 583.886C154.766 514.936 151.177 445.209 156.166 376.723L156.176 376.724C81.2699 341.685 -0.680153 308.335 -84.8842 278.816C-245.27 222.589 -403.394 183.814 -532.788 170.336C-675.453 155.476 -777.978 171.583 -826.928 220.903V220.902Z" fill="#E2E2E2" fill-opacity="0.3"/>
</g>
<defs>
<linearGradient id="paint0_linear" x1="1906.63" y1="699.607" x2="409.07" y2="-267.544" gradientUnits="userSpaceOnUse">
<stop stop-color="#FFD60B"/>
<stop offset="1" stop-color="#F0065C"/>
</linearGradient>
</defs>
</svg>
